<svg width="46" height="16" viewBox="0 0 46 16" fill="none" xmlns="http://www.w3.org/2000/svg">
<path d="M25 8.5C25 8.22386 25.2239 8 25.5 8H33.7308C34.0069 8 34.2308 8.22386 34.2308 8.5V13.7418C34.2308 14.0179 34.0069 14.2418 33.7308 14.2418H25V8.5Z" fill="#3BCF93"/>
<path d="M25 13.978H26.4945L25.8352 14.9011L25 16V13.978Z" fill="#3BCF93"/>
<path d="M26.3186 9.11538C26.3186 8.83924 26.5425 8.61538 26.8186 8.61538H32.4999C32.7761 8.61538 32.9999 8.83924 32.9999 9.11538V12.2472C32.9999 12.5234 32.7761 12.7472 32.4999 12.7472H26.8186C26.5425 12.7472 26.3186 12.5234 26.3186 12.2472V9.11538Z" fill="#89E0C0"/>
<path d="M26.3186 13.1429C26.3186 13.07 26.3776 13.011 26.4505 13.011H27.7692C27.842 13.011 27.901 13.07 27.901 13.1429C27.901 13.2157 27.842 13.2747 27.7692 13.2747H26.4505C26.3776 13.2747 26.3186 13.2157 26.3186 13.1429Z" fill="#89E0C0"/>
<path d="M26.3186 13.5824C26.3186 13.5096 26.3776 13.4505 26.4505 13.4505H28.5604C28.6332 13.4505 28.6922 13.5096 28.6922 13.5824C28.6922 13.6552 28.6332 13.7143 28.5604 13.7143H26.4505C26.3776 13.7143 26.3186 13.6552 26.3186 13.5824Z" fill="#89E0C0"/>
<path d="M36 8.5C36 8.22386 36.2239 8 36.5 8H44.7308C45.0069 8 45.2308 8.22386 45.2308 8.5V13.7418C45.2308 14.0179 45.0069 14.2418 44.7308 14.2418H36V8.5Z" fill="#3BCF93"/>
<path d="M36 13.978H37.4945L36.8352 14.9011L36 16V13.978Z" fill="#3BCF93"/>
<path d="M37.3186 9.11538C37.3186 8.83924 37.5425 8.61538 37.8186 8.61538H43.4999C43.7761 8.61538 43.9999 8.83924 43.9999 9.11538V12.2472C43.9999 12.5234 43.7761 12.7472 43.4999 12.7472H37.8186C37.5425 12.7472 37.3186 12.5234 37.3186 12.2472V9.11538Z" fill="#89E0C0"/>
<path d="M37.3186 13.1429C37.3186 13.07 37.3776 13.011 37.4505 13.011H38.7692C38.842 13.011 38.901 13.07 38.901 13.1429C38.901 13.2157 38.842 13.2747 38.7692 13.2747H37.4505C37.3776 13.2747 37.3186 13.2157 37.3186 13.1429Z" fill="#89E0C0"/>
<path d="M37.3186 13.5824C37.3186 13.5096 37.3776 13.4505 37.4505 13.4505H39.5604C39.6332 13.4505 39.6922 13.5096 39.6922 13.5824C39.6922 13.6552 39.6332 13.7143 39.5604 13.7143H37.4505C37.3776 13.7143 37.3186 13.6552 37.3186 13.5824Z" fill="#89E0C0"/>
<path d="M5.09717 10.4131V5.13184H6.27783V12H5.1543L5.09717 10.4131ZM5.31934 8.96582L5.80811 8.95312C5.80811 9.41016 5.75944 9.83333 5.66211 10.2227C5.56901 10.6077 5.41667 10.9421 5.20508 11.2256C4.99349 11.5091 4.71631 11.7313 4.37354 11.8921C4.03076 12.0487 3.61393 12.127 3.12305 12.127C2.78874 12.127 2.48193 12.0783 2.20264 11.981C1.92757 11.8836 1.69059 11.7334 1.4917 11.5303C1.29281 11.3271 1.13835 11.0627 1.02832 10.7368C0.922526 10.411 0.869629 10.0195 0.869629 9.5625V5.13184H2.04395V9.5752C2.04395 9.88411 2.0778 10.1401 2.14551 10.3433C2.21745 10.5422 2.31266 10.7008 2.43115 10.8193C2.55387 10.9336 2.68929 11.014 2.8374 11.0605C2.98975 11.1071 3.14632 11.1304 3.30713 11.1304C3.80648 11.1304 4.20215 11.0352 4.49414 10.8447C4.78613 10.6501 4.99561 10.3898 5.12256 10.064C5.25374 9.73389 5.31934 9.36784 5.31934 8.96582ZM12.5219 10.1782C12.5219 10.009 12.4838 9.85238 12.4076 9.7085C12.3357 9.56038 12.1855 9.42708 11.957 9.30859C11.7327 9.18587 11.3941 9.08008 10.9413 8.99121C10.5605 8.91081 10.2156 8.81559 9.90666 8.70557C9.60197 8.59554 9.34172 8.46224 9.1259 8.30566C8.91431 8.14909 8.75139 7.96501 8.63713 7.75342C8.52287 7.54183 8.46574 7.29427 8.46574 7.01074C8.46574 6.73991 8.52499 6.48389 8.64348 6.24268C8.7662 6.00146 8.93758 5.78776 9.15764 5.60156C9.38192 5.41536 9.65064 5.26937 9.96379 5.16357C10.2769 5.05778 10.6261 5.00488 11.0112 5.00488C11.5613 5.00488 12.031 5.10221 12.4203 5.29688C12.8097 5.49154 13.108 5.75179 13.3154 6.07764C13.5227 6.39925 13.6264 6.75684 13.6264 7.15039H12.4521C12.4521 6.95996 12.3949 6.77588 12.2807 6.59814C12.1707 6.41618 12.0077 6.26595 11.7919 6.14746C11.5803 6.02897 11.3201 5.96973 11.0112 5.96973C10.6853 5.96973 10.4208 6.02051 10.2177 6.12207C10.0188 6.2194 9.87281 6.34424 9.77971 6.49658C9.69084 6.64893 9.64641 6.80973 9.64641 6.979C9.64641 7.10596 9.66757 7.22021 9.70988 7.32178C9.75643 7.41911 9.83684 7.51009 9.95109 7.59473C10.0654 7.67513 10.2262 7.7513 10.4335 7.82324C10.6409 7.89518 10.9054 7.96712 11.227 8.03906C11.7898 8.16602 12.2532 8.31836 12.6171 8.49609C12.981 8.67383 13.2519 8.89176 13.4296 9.1499C13.6073 9.40804 13.6962 9.72119 13.6962 10.0894C13.6962 10.3898 13.6327 10.6649 13.5058 10.9146C13.3831 11.1642 13.2032 11.38 12.9662 11.562C12.7335 11.7397 12.4542 11.8794 12.1283 11.981C11.8067 12.0783 11.4449 12.127 11.0429 12.127C10.4377 12.127 9.9257 12.019 9.50676 11.8032C9.08781 11.5874 8.77043 11.3081 8.55461 10.9653C8.33879 10.6226 8.23088 10.2607 8.23088 9.87988H9.41154C9.42847 10.2015 9.52157 10.4575 9.69084 10.6479C9.86011 10.8341 10.0675 10.9674 10.3129 11.0479C10.5584 11.124 10.8017 11.1621 11.0429 11.1621C11.3645 11.1621 11.6332 11.1198 11.849 11.0352C12.0691 10.9505 12.2362 10.8341 12.3505 10.686C12.4648 10.5379 12.5219 10.3687 12.5219 10.1782ZM19.2928 3.57666L16.2332 12H14.9828L18.5057 2.75781H19.3119L19.2928 3.57666ZM21.8573 12L18.7913 3.57666L18.7723 2.75781H19.5785L23.1141 12H21.8573ZM21.6986 8.57861V9.58154H16.5062V8.57861H21.6986Z" fill="#3BCF93"/>
</svg>
